<?xml version="1.0" encoding="UTF-8"?>
<svg version="1.1" viewBox="0 0 169 169" xmlns="http://www.w3.org/2000/svg" xmlns:xlink="http://www.w3.org/1999/xlink">
 <defs>
  <linearGradient id="e" x1="388.24" x2="547.85" y1="90.903" y2="249.47" gradientUnits="userSpaceOnUse">
   <stop stop-color="#f4f400" offset="0"/>
  </linearGradient>
  <linearGradient id="d" x1="388.24" x2="547.85" y1="90.903" y2="249.47" gradientUnits="userSpaceOnUse">
   <stop stop-color="#a4a4a4" offset="0"/>
  </linearGradient>
  <linearGradient id="b" x1="528.38" x2="371.99" y1="226.62" y2="66.617" gradientUnits="userSpaceOnUse">
   <stop stop-color="#a4a4a4" offset="0"/>
   <stop stop-color="#fff" offset="1"/>
  </linearGradient>
  <linearGradient id="c" x1="180.15" x2="271.28" y1="496.65" y2="496.65" gradientTransform="translate(.71429 -2.1429)" gradientUnits="userSpaceOnUse">
   <stop stop-color="#575757" stop-opacity=".44118" offset="0"/>
  </linearGradient>
  <filter id="f" color-interpolation-filters="sRGB">
   <feGaussianBlur stdDeviation="1.7768699"/>
  </filter>
  <radialGradient id="a" cx="497.41" cy="456.76" r="90.922" gradientTransform="matrix(.25676 .010544 -.023622 .43839 84.366 293.74)" gradientUnits="userSpaceOnUse">
   <stop stop-color="#636363" offset="0"/>
   <stop stop-color="#292929" offset="1"/>
  </radialGradient>
 </defs>
 <g transform="translate(0 -883.36)">
  <g transform="translate(-143.57 470)">
   <path transform="translate(-229.98 335.29)" d="m532.35 160.9c0 40.447-32.789 73.236-73.236 73.236s-73.236-32.789-73.236-73.236 32.789-73.236 73.236-73.236 73.236 32.789 73.236 73.236z" fill="url(#e)" stroke="url(#d)"/>
   <path transform="translate(-230.54 334.32)" d="m532.35 160.9c0 40.447-32.789 73.236-73.236 73.236s-73.236-32.789-73.236-73.236 32.789-73.236 73.236-73.236 73.236 32.789 73.236 73.236z" fill="none" stroke="url(#b)" stroke-width="5"/>
   <path d="m205.17 445.9c-9.7474 0-13.672 10.19-13.672 15.681 0 3.7482 2.5374 7.0143 6.2799 8.7088-2.1804 3.2068-6.4822 10.26-7.8617 17.841l-0.93964-10.855h-6.5932l0.51681 28.273 2.0516 0.20506-1.0336 9.0369-3.0538 0.041 0.5168 9.7205 11.714-1.0117-10.712 18.252h6.5932l7.5954-17.24 9.0989 16.802 6.5932 0.87498-10.132-19.441h-0.23492l15.426-1.3261-0.79869-5.5643c6.0273-0.6326 9.7855-0.43102 10.414 5.0585 0.53237 4.6476 0.64081 10.228 0.62643 14.519l-4.1657 7.6424 23.789-0.88865v-0.4375h1.0179l6.4365-15.695 7.2196 15.258h9.6313l-13.468-23.501 4.8548-11.853v-6.6307l-31.384 0.88866v5.2909h23.789l-13.562 32.347-6.5305-1.9961c2.4741-8.4691 5.543-22.37 0.36019-25.99-7.5934-5.3032-24.818-0.88116-29.881-7.0682-0.65674-0.80266-1.0069-8.8535-1.1746-11.347 2.3899 1.8204 6.1445 4.874 9.0519 4.7167 9.1087-0.4927 16.24 0.16406 16.24 0.16406l3.7272 0.51952v2.4746l26.326-0.43748 12.153-25.634h-4.0561l-9.6157 22.093-13.468 0.23242c-4.6661-3.1928-4.6325-5.5159-12.779-5.0038-3.47 0.91197-11.069 1.2824-17.242-0.35546-2.7775-0.73689-7.5131-5.5929-9.9132-6.453 0.12474-4.7197 0.0108-8.8956 0.32887-12.373 5.9528-0.64176 9.0366-0.39072 10.555-9.8572 0.87249-5.4386 2.1511-15.681-10.634-15.681zm-16.945 60.196 2.1142 0.21875c0.73257 3.4883 2.0882 6.4338 4.6199 8.3397l-7.2352 0.0957 0.50115-8.6541z" fill="url(#c)" filter="url(#f)"/>
   <path d="m209.1 444.11c-9.7474 0-13.672 10.19-13.672 15.681 0 3.7482 2.5374 7.0143 6.2799 8.7088-2.1804 3.2068-6.4822 10.26-7.8617 17.841l-0.93964-10.855h-6.5932l0.51681 28.273 2.0516 0.20506-1.0336 9.0369-3.0538 0.041 0.5168 9.7205 11.714-1.0117-10.712 18.252h6.5932l7.5954-17.24 9.0989 16.802 6.5932 0.87498-10.132-19.441h-0.23492l15.426-1.3261-0.79869-5.5643c6.0273-0.6326 9.7855-0.43102 10.414 5.0585 0.53237 4.6476 0.64081 10.228 0.62643 14.519l-4.1657 7.6424 23.789-0.88865v-0.4375h1.0179l6.4365-15.695 7.2196 15.258h9.6313l-13.468-23.501 4.8548-11.853v-6.6307l-31.384 0.88866v5.2909h23.789l-13.562 32.347-6.5305-1.9961c2.4741-8.4691 5.543-22.37 0.36019-25.99-7.5934-5.3032-24.818-0.88116-29.881-7.0682-0.65674-0.80266-1.0069-8.8535-1.1746-11.347 2.3899 1.8204 6.1445 4.874 9.0519 4.7167 9.1087-0.4927 16.24 0.16406 16.24 0.16406l3.7272 0.51952v2.4746l26.326-0.43748 12.153-25.634h-4.0561l-9.6157 22.093-13.468 0.23242c-4.6661-3.1928-4.6325-5.5159-12.779-5.0038-3.47 0.91197-11.069 1.2824-17.242-0.35546-2.7775-0.73689-7.5131-5.5929-9.9132-6.453 0.12474-4.7197 0.0108-8.8956 0.32887-12.373 5.9528-0.64176 9.0366-0.39072 10.555-9.8572 0.87249-5.4386 2.1511-15.681-10.634-15.681zm-16.945 60.196 2.1142 0.21875c0.73257 3.4883 2.0882 6.4338 4.6199 8.3397l-7.2352 0.0957 0.50115-8.6541z" fill="url(#a)"/>
  </g>
 </g>
</svg>
