<?xml version='1.0' encoding='utf-8'?>
<svg xmlns:xlink="http://www.w3.org/1999/xlink" xmlns="http://www.w3.org/2000/svg" width="54.120342" height="59.955296" viewBox="0 0 54.120342 59.955296" version="1.1" id="svg5"><defs id="defs2"><linearGradient id="linearGradient1067"><stop style="stop-color:#007689;stop-opacity:1;" offset="0" id="stop1063"/><stop style="stop-color:#8defff;stop-opacity:1;" offset="1" id="stop1065"/></linearGradient><linearGradient xlink:href="#linearGradient1067" id="linearGradient1069" x1="5.0105267" y1="34.871433" x2="42.765106" y2="13.119823" gradientUnits="userSpaceOnUse"/><filter style="color-interpolation-filters:sRGB" id="filter1404" x="-0.19087844" y="-0.16530712" width="1.4347786" height="1.3765329"><feFlood flood-opacity="0.65098" flood-color="rgb(0,0,0)" result="flood" id="feFlood1394"/><feComposite in="SourceGraphic" in2="flood" operator="in" result="composite1" id="feComposite1396"/><feGaussianBlur in="composite1" stdDeviation="3" result="blur" id="feGaussianBlur1398"/><feOffset dx="2" dy="2" result="offset" id="feOffset1400"/><feComposite in="SourceGraphic" in2="offset" operator="over" result="composite2" id="feComposite1402"/></filter></defs><g id="layer1" transform="translate(2.0601733,4.9776497)"><g id="g1320" style="filter:url(#filter1404)"><path d="m 23.999999,2.2223506 18.860172,10.8888234 -1e-6,21.777647 -18.860172,10.888823 -18.860171,-10.888823 6e-7,-21.777647 z" fill="none" stroke="#555555" stroke-linecap="round" stroke-width="1.74217" id="path333" style="fill:url(#linearGradient1069);fill-opacity:1;fill-rule:nonzero;stroke:none"/><g id="g1173" style="fill:#ffffff;fill-opacity:0.661432"><path d="m 15.562692,15.856628 a 1.3023927,1.3023927 0 0 0 -0.895229,0.393877 l -6.78825,6.78825 a 1.3023927,1.3023927 0 0 0 0,1.841692 l 6.78825,6.78825 a 1.3023927,1.3023927 0 1 0 1.841692,-1.841692 l -5.867076,-5.867339 5.867076,-5.867338 a 1.3023927,1.3023927 0 0 0 -0.946411,-2.235582 z" color="#000000" color-rendering="auto" image-rendering="auto" solid-color="#000000" style="text-indent:0;text-decoration-line:none;text-decoration-style:solid;text-decoration-color:#000000;text-transform:none;white-space:normal;isolation:auto;mix-blend-mode:normal;fill:#ffffff;fill-opacity:0.661432;fill-rule:evenodd;stroke-width:0.131035;shape-rendering:auto" id="path335"/><path d="m 32.398024,15.856628 a 1.3023927,1.3023927 0 0 0 -0.907258,2.236237 l 5.867076,5.867338 -5.867076,5.867339 a 1.3023927,1.3023927 0 1 0 1.841692,1.841692 l 6.78825,-6.78825 a 1.3023927,1.3023927 0 0 0 0,-1.841692 l -6.78825,-6.78825 a 1.3023927,1.3023927 0 0 0 -0.934395,-0.394637 z" color="#000000" color-rendering="auto" image-rendering="auto" solid-color="#000000" style="text-indent:0;text-decoration-line:none;text-decoration-style:solid;text-decoration-color:#000000;text-transform:none;white-space:normal;isolation:auto;mix-blend-mode:normal;fill:#ffffff;fill-opacity:0.661432;fill-rule:evenodd;stroke-width:0.131035;shape-rendering:auto" id="path337"/><path d="m 28.151505,14.617186 a 1.3023927,1.3023927 0 0 0 -1.494039,0.694996 L 18.53335,31.526358 a 1.3023927,1.3023927 0 1 0 2.328715,1.166877 l 8.124116,-16.214176 a 1.3023927,1.3023927 0 0 0 -0.834645,-1.861837 z" color="#000000" color-rendering="auto" image-rendering="auto" solid-color="#000000" style="text-indent:0;text-decoration-line:none;text-decoration-style:solid;text-decoration-color:#000000;text-transform:none;white-space:normal;isolation:auto;mix-blend-mode:normal;fill:#ffffff;fill-opacity:0.661432;fill-rule:evenodd;stroke-width:0.131035;shape-rendering:auto" id="path339"/></g></g></g></svg>